<svg id="Layer_1" data-name="Layer 1" xmlns="http://www.w3.org/2000/svg" viewBox="0 0 121.63 47.65"><defs><style>.cls-1{fill:#000f9e;}.cls-2{fill:#4dbbff;}.cls-3{fill:none;}</style></defs><path class="cls-1" d="M57.1,28.52a6.29,6.29,0,0,1-2.6,5.13,10.85,10.85,0,0,1-6.93,2.06c-4.55,0-8.23-1.28-11-3.83l2.95-3.74a11.24,11.24,0,0,0,7.32,2.35c2.46,0,3.69-.65,3.69-2a1.54,1.54,0,0,0-1-1.48,12,12,0,0,0-3.42-.82,12,12,0,0,1-6.29-2.35A6.14,6.14,0,0,1,37.79,19a6,6,0,0,1,2.7-5.07,11.66,11.66,0,0,1,7-2,14.47,14.47,0,0,1,9,3.55l-2.66,3.58a8.78,8.78,0,0,0-6-2.11c-2.36,0-3.54.63-3.54,1.91a1.42,1.42,0,0,0,.89,1.37,17.77,17.77,0,0,0,3.59.88A13.5,13.5,0,0,1,55,23.52a6,6,0,0,1,2.09,5"/><path class="cls-1" d="M108.78,19.17a12.06,12.06,0,0,0-15.71-6.33,12.28,12.28,0,0,0-3.81,2.54,11.8,11.8,0,0,0-2.56,3.79,11.63,11.63,0,0,0-.94,4.64V35.7H91.9V23.81a5.6,5.6,0,0,1,.45-2.26,5.8,5.8,0,0,1,1.25-1.86A6,6,0,0,1,97.74,18a5.88,5.88,0,0,1,2.28.46,5.76,5.76,0,0,1,3.56,5.35V35.7h6.14V23.81a11.46,11.46,0,0,0-.94-4.64"/><path class="cls-1" d="M32.27,15.38a12.07,12.07,0,0,0-3.79-2.54,12.07,12.07,0,0,0-9.29,0,11.81,11.81,0,0,0-6.35,6.33,12.16,12.16,0,0,0,0,9.28,11.93,11.93,0,0,0,2.55,3.79,11.79,11.79,0,0,0,3.8,2.54,12.07,12.07,0,0,0,9.29,0,11.74,11.74,0,0,0,3.79-2.54,11.93,11.93,0,0,0,2.55-3.79,12,12,0,0,0,0-9.28,12.16,12.16,0,0,0-2.55-3.79M29.2,26.07A6.12,6.12,0,0,1,28,27.93a6,6,0,0,1-1.87,1.24,5.9,5.9,0,0,1-4.52,0,5.88,5.88,0,0,1-1.86-1.24,5.86,5.86,0,0,1,0-8.24,5.54,5.54,0,0,1,1.86-1.23,5.78,5.78,0,0,1,4.52,0A5.69,5.69,0,0,1,28,19.69a6,6,0,0,1,1.24,1.86,5.9,5.9,0,0,1,0,4.52"/><path class="cls-1" d="M79.52,32.22A11.82,11.82,0,0,1,68,35.27a11.43,11.43,0,0,1-5.32-3.05,11.69,11.69,0,0,1-3.08-5.37,11.91,11.91,0,1,1,21.59,3.32,12.61,12.61,0,0,1-1.64,2"/><path class="cls-2" d="M79.52,32.22A11.82,11.82,0,0,1,68,35.27a.1.1,0,0,1,0-.08,11.88,11.88,0,0,1,14.64-14.5,11.9,11.9,0,0,1-1.41,9.48,12.61,12.61,0,0,1-1.64,2"/><rect class="cls-3" width="121.63" height="47.65"/></svg>